<?xml version="1.0" encoding="UTF-8"?>
<svg id="Layer_1" data-name="Layer 1" xmlns="http://www.w3.org/2000/svg" viewBox="0 0 423.41 529.84">
  <defs>
    <style>
      .cls-1 {
        fill: none;
        stroke: #dbcdbf;
        stroke-miterlimit: 10;
        stroke-width: 2px;
      }

      .cls-2 {
        fill: #dbcdbf;
      }
    </style>
  </defs>
  <g id="Final_Logo" data-name="Final Logo">
    <rect class="cls-1" x="1" y="265.05" width="250.38" height="250.38"/>
    <g>
      <path class="cls-2" d="M85.38,305.38h24.94v6.7h-8.58v50.17h-7.51v-50.17h-8.84v-6.7Z"/>
      <path class="cls-2" d="M114.55,305.38h7.66v22.25h11.24v-22.25h7.66v56.88h-7.66v-28.14h-11.24v28.14h-7.66v-56.88Z"/>
      <path class="cls-2" d="M146.86,305.38h20.37v6.48h-12.71v18.01h11.27v6.48h-11.27v19.41h12.71v6.48h-20.37v-56.88Z"/>
    </g>
    <g>
      <path class="cls-2" d="M84.05,425.01h9.43c2.87,0,5.29.32,7.26.96,1.82.61,3.44,1.71,4.86,3.28,2.14,2.36,3.66,5.43,4.57,9.21.91,3.66,1.36,8.9,1.36,15.73,0,6.26-.5,11.37-1.51,15.32-.98,3.78-2.6,6.67-4.86,8.66-2.78,2.48-7.75,3.72-14.92,3.72h-6.19v-56.88ZM91.71,475.18c4.67,0,7.78-1.41,9.36-4.24,1.62-2.82,2.43-8.31,2.43-16.47,0-8.77-.77-14.79-2.32-18.09-1.55-3.29-4.38-4.94-8.51-4.94h-.96v43.72Z"/>
      <path class="cls-2" d="M116.14,425.01h20.37v6.48h-12.71v18.01h11.27v6.48h-11.27v19.41h12.71v6.48h-20.37v-56.88Z"/>
      <path class="cls-2" d="M139.01,425.01h7.55l3.43,21,.59,3.79,1.22,8.25c.2,1.4.37,2.68.53,3.83.16,1.15.3,2.2.42,3.13l.37,2.8c.07-.56.13-1.07.18-1.51.05-.44.1-.81.15-1.1l1-6.59,1.29-8.66c.12-.79.24-1.51.35-2.17.11-.66.21-1.25.31-1.77l3.68-21h7.15l-11.16,56.88h-6.08l-10.98-56.88Z"/>
    </g>
    <g>
      <path class="cls-2" d="M11.91,389c.03-22.01,19.17-42,40.28-41.97,13.34.02,22.99,7.9,22.98,18.65-.01,9.36-7.49,17.02-16.65,17.01-6.97,0-12.04-4.7-12.04-11.27,0-1.89.5-4.78,2.3-6.57,2.39-2.39,6.17,0,4.18,2.59-.8,1.09-1.1,2.09-1.1,3.48,0,3.49,2.78,6.08,6.76,6.08,5.97,0,10.76-5.16,10.77-11.34,0-7.47-7.15-13.05-17.11-13.07-18.02-.02-34.58,17.28-34.6,36.1-.02,13.44,8.83,22.71,20.98,22.73,5.28,0,10.56-1.78,13.85-4.56,3.69-3.18,6.47,1.9,2.58,5.08-3.79,3.08-10.36,5.07-16.74,5.06-15.34-.02-26.47-11.58-26.45-28.02Z"/>
      <path class="cls-2" d="M95.45,396.67c1.7-3.68,6.87-2.58,5.28,1.1-2.3,4.98-6.79,13.14-14.65,13.13-4.18,0-7.66-2.4-7.66-7.08,0-1.89.6-4.28,1.5-6.17l5.49-11.84c.5-1.19,1-2.49,1-3.29,0-2.69-3.38-3.09-4.67-4.69l-10.08,21.79c-1.4,2.99-2.7,6.07-2.7,9.96,0,3.19,1.49,6.47,5.47,7.38,3.78.9,2.48,6.38-1.5,5.47-6.37-1.4-9.45-6.98-9.44-12.66,0-4.78,2.2-9.76,3.2-11.85l14.38-30.85c1.6-3.38,7.27-2.58,4.78,2.1-4.49,8.46,6.27,4.09,6.26,12.65,0,1.49-1,4.48-1.6,5.77l-5.69,12.24c-.5,1-.9,2.29-.9,3.38,0,1.39.69,2.39,2.59,2.39,4.18,0,6.88-4.57,8.97-8.95Z"/>
      <path class="cls-2" d="M100.22,400.56c0,2.59,3.18,5.18,7.36,5.19,6.87,0,11.06-4.96,12.96-9.05,1.6-3.58,6.87-2.48,5.28,1.1-3.99,8.76-10.47,13.13-18.44,13.12-6.77,0-12.74-3.3-12.73-9.68,0-1.99.7-4.88,2.2-7.86l3.99-8.36c1.6-3.18,4.69-9.85,12.06-9.84,5.38,0,7.56,3.3,7.56,7.18,0,1.69-.5,3.58-1,4.88-2.5,6.47-6.68,9.25-11.36,9.25-2.09,0-4.28-1.2-5.27-2.1-.3-.2-.5.1-.6.4l-1,2.19c-.7,1.49-1,2.79-1,3.58ZM107.9,391.21c2.29,0,4.28-1.69,5.88-4.77.5-1,1-2.39,1-3.68,0-1.49-.69-2.59-2.69-2.59-2.59,0-4.38,2.48-5.88,5.67l-1.3,2.79c-.2.5-.4,1.19.2,1.59.9.6,1.79,1,2.79,1Z"/>
      <path class="cls-2" d="M139.55,403.5c0,1.59,1.09,2.19,2.69,2.19,4.08,0,6.88-4.57,8.97-8.95,1.7-3.68,6.87-2.58,5.28,1.1-2.3,4.98-6.79,13.14-14.66,13.12-3.09,0-5.97-1.3-7.16-4.29-2.09,2.59-5.18,4.28-8.37,4.27-4.58,0-7.66-2.8-7.66-6.98,0-1.89.4-4.08,1.9-7.27l4.89-10.65c1.4-3.09,5.59-10.85,12.96-10.84,2.89,0,5.37,2.1,5.57,4.69l.6-1.19c1.7-3.48,7.07-2.28,5.17,1.8l-9.09,19.41c-.7,1.49-1.1,2.79-1.1,3.58ZM135.08,399.01l5.59-12.04c.6-1.29,1-2.59,1-3.68,0-1.69-.89-2.89-3.28-2.89-2.79,0-5.48,2.58-8.18,8.45l-4.79,10.25c-.7,1.49-1.1,2.79-1.1,3.98,0,1.59,1.09,2.69,2.79,2.69,2.89,0,6.08-2.78,7.98-6.76Z"/>
      <path class="cls-2" d="M167.74,396.76c1.7-3.68,6.87-2.58,5.28,1.1-2.3,4.98-6.79,13.14-14.66,13.13-5.88,0-9.06-2.4-9.05-7.58,0-1.59.6-3.88,1.9-6.67l5.89-12.84c.6-1.29.4-1.79,0-1.79h-.4c-1.79,0-2.29-1.1-1.69-2.69.5-1.39,1.4-2.49,3.09-2.49h.6c1.29,0,1.99-.69,2.49-1.79l3.7-7.96c1.8-3.68,6.77-2.58,4.78,2.1l-2.9,6.47c-.5,1-.1,1.2.89,1.2h1.1c1.99,0,2.79,1.2,1.99,3.09-.5,1.19-1.7,2.09-3.09,2.09h-1.79c-1.39,0-2.19.49-2.79,1.79l-6.49,14.03c-.7,1.59-1.2,3.19-1.2,4.48,0,1.99,1.09,3.29,3.38,3.29,4.08,0,6.88-4.57,8.97-8.95Z"/>
      <path class="cls-2" d="M183.28,396.78c1.7-3.68,6.87-2.58,5.28,1.1-2.3,4.98-6.79,13.14-14.66,13.12-4.18,0-8.26-2.4-8.25-7.28,0-2.59,1-4.68,2.1-6.97l8.19-17.81c1.6-3.38,6.87-2.68,4.78,2.1l-8.39,18.91c-.5,1-.8,2.19-.8,3.19,0,1.49.69,2.59,2.78,2.59,4.08,0,6.88-4.57,8.97-8.95ZM180.13,365.51c.4-2.29,2.49-4.08,4.59-4.08,2.49,0,4.28,2.1,3.78,4.49-.4,2.29-2.5,3.98-4.69,3.98-2.59,0-4.08-2.1-3.68-4.39Z"/>
      <path class="cls-2" d="M186.85,403.06c0,1.59.69,2.79,2.88,2.79,4.28,0,6.88-4.37,8.67-8.05l2.7-5.57c1.5-3.09,2.6-7.66,2.6-11.85,0-.7,0-1.39-.2-2.19-.79-3.09,4.19-3.88,4.98-.59.3,1.2.4,2.39.39,3.78,0,5.18-1.71,10.25-3.3,13.74l-2.6,5.47c-2.2,4.68-6.29,10.45-13.66,10.44-3.09,0-8.16-1.6-8.16-7.18,0-1.89.7-4.08,2.1-7.07l8.19-17.81c1.6-3.38,6.97-2.68,4.78,2.1l-8.49,18.61c-.5,1.09-.9,2.29-.9,3.38Z"/>
      <path class="cls-2" d="M214.94,400.71c0,2.59,3.18,5.18,7.36,5.19,6.87,0,11.06-4.96,12.96-9.04,1.6-3.58,6.87-2.48,5.28,1.1-4,8.76-10.47,13.13-18.44,13.12-6.77,0-12.74-3.3-12.73-9.68,0-1.99.7-4.88,2.2-7.86l3.99-8.36c1.6-3.18,4.69-9.85,12.06-9.84,5.38,0,7.56,3.3,7.56,7.18,0,1.69-.5,3.58-1,4.88-2.5,6.47-6.68,9.25-11.36,9.25-2.09,0-4.28-1.2-5.27-2.1-.3-.2-.5.1-.6.4l-1,2.19c-.7,1.49-1,2.79-1,3.58ZM222.62,391.36c2.29,0,4.28-1.69,5.88-4.77.5-1,1-2.39,1-3.68,0-1.49-.69-2.59-2.68-2.59-2.59,0-4.39,2.48-5.88,5.67l-1.3,2.79c-.2.5-.4,1.19.2,1.59.9.6,1.79,1,2.79,1Z"/>
    </g>
  </g>
</svg>