<?xml version="1.0" encoding="UTF-8"?>
<svg id="Layer_1" data-name="Layer 1" xmlns="http://www.w3.org/2000/svg" viewBox="0 0 531.43 772.06">
  <defs>
    <style>
      .cls-1 {
        fill: none;
        stroke: #483328;
        stroke-miterlimit: 10;
        stroke-width: 2px;
      }

      .cls-2 {
        fill: #483328;
      }
    </style>
  </defs>
  <g id="Final_Logo" data-name="Final Logo">
    <rect class="cls-1" x="116.2" y="273.78" width="232.93" height="232.93"/>
    <g>
      <path class="cls-2" d="M194.7,311.3h23.2v6.24h-7.98v46.67h-6.99v-46.67h-8.22v-6.24Z"/>
      <path class="cls-2" d="M221.84,311.3h7.13v20.7h10.45v-20.7h7.13v52.91h-7.13v-26.18h-10.45v26.18h-7.13v-52.91Z"/>
      <path class="cls-2" d="M251.89,311.3h18.95v6.03h-11.82v16.76h10.49v6.03h-10.49v18.06h11.82v6.03h-18.95v-52.91Z"/>
    </g>
    <g>
      <path class="cls-2" d="M193.46,422.58h8.77c2.67,0,4.92.3,6.75.89,1.69.57,3.2,1.59,4.52,3.05,1.99,2.19,3.4,5.05,4.25,8.57.84,3.4,1.27,8.28,1.27,14.63,0,5.83-.47,10.58-1.41,14.25-.91,3.52-2.42,6.2-4.52,8.05-2.58,2.31-7.21,3.46-13.88,3.46h-5.76v-52.91ZM200.59,469.26c4.34,0,7.24-1.31,8.7-3.94,1.51-2.63,2.26-7.73,2.26-15.32,0-8.16-.72-13.76-2.16-16.83s-4.08-4.59-7.92-4.59h-.89v40.68Z"/>
      <path class="cls-2" d="M223.32,422.58h18.95v6.03h-11.82v16.76h10.49v6.03h-10.49v18.06h11.82v6.03h-18.95v-52.91Z"/>
      <path class="cls-2" d="M244.6,422.58h7.02l3.19,19.53.55,3.53,1.13,7.68c.18,1.3.35,2.49.5,3.56s.28,2.04.39,2.91l.34,2.6c.07-.53.13-.99.17-1.4.05-.41.09-.75.14-1.03l.93-6.13,1.2-8.05c.11-.73.22-1.41.33-2.02.1-.62.2-1.17.29-1.65l3.43-19.53h6.65l-10.38,52.91h-5.65l-10.21-52.91Z"/>
    </g>
    <g>
      <path class="cls-2" d="M126.34,389.08c.03-20.47,17.84-39.07,37.48-39.04,12.41.02,21.39,7.35,21.38,17.35-.01,8.71-6.97,15.83-15.49,15.82-6.48,0-11.2-4.37-11.2-10.48,0-1.76.47-4.45,2.14-6.11,2.23-2.22,5.74,0,3.89,2.41-.74,1.02-1.02,1.94-1.02,3.24,0,3.24,2.59,5.65,6.29,5.66,5.56,0,10.01-4.8,10.02-10.55,0-6.95-6.65-12.14-15.92-12.16-16.77-.02-32.17,16.08-32.19,33.59-.02,12.51,8.22,21.13,19.52,21.15,4.91,0,9.82-1.65,12.88-4.24,3.43-2.96,6.02,1.77,2.4,4.73-3.52,2.87-9.64,4.71-15.57,4.7-14.27-.02-24.63-10.78-24.61-26.06Z"/>
      <path class="cls-2" d="M204.06,396.22c1.58-3.42,6.39-2.4,4.91,1.03-2.14,4.63-6.31,12.22-13.63,12.21-3.89,0-7.13-2.23-7.12-6.59,0-1.76.56-3.98,1.4-5.74l5.11-11.02c.46-1.11.93-2.32.93-3.06,0-2.5-3.15-2.88-4.35-4.36l-9.38,20.28c-1.3,2.78-2.51,5.65-2.51,9.26,0,2.96,1.38,6.02,5.09,6.86,3.52.84,2.31,5.93-1.4,5.09-5.93-1.3-8.79-6.5-8.79-11.78,0-4.45,2.05-9.08,2.98-11.02l13.38-28.7c1.49-3.15,6.77-2.4,4.44,1.95-4.18,7.87,5.83,3.81,5.82,11.77,0,1.39-.93,4.17-1.49,5.37l-5.29,11.39c-.46.93-.84,2.13-.84,3.15,0,1.3.65,2.22,2.41,2.23,3.89,0,6.4-4.25,8.35-8.33Z"/>
      <path class="cls-2" d="M208.5,399.84c0,2.41,2.96,4.82,6.85,4.83,6.39,0,10.29-4.62,12.05-8.42,1.49-3.33,6.39-2.31,4.91,1.03-3.72,8.15-9.74,12.21-17.15,12.21-6.3,0-11.85-3.07-11.85-9,0-1.85.65-4.54,2.05-7.32l3.72-7.78c1.49-2.96,4.37-9.17,11.22-9.16,5,0,7.04,3.07,7.03,6.68,0,1.57-.47,3.33-.93,4.54-2.32,6.02-6.22,8.61-10.57,8.6-1.95,0-3.98-1.12-4.91-1.95-.28-.19-.46.09-.56.37l-.93,2.04c-.65,1.39-.93,2.59-.93,3.33ZM215.65,391.14c2.13,0,3.99-1.57,5.47-4.44.46-.93.93-2.22.93-3.43,0-1.39-.65-2.41-2.5-2.41-2.41,0-4.08,2.31-5.47,5.27l-1.21,2.59c-.19.46-.37,1.11.18,1.48.83.56,1.67.93,2.59.93Z"/>
      <path class="cls-2" d="M245.09,402.57c0,1.48,1.02,2.04,2.5,2.04,3.8,0,6.4-4.25,8.35-8.33,1.58-3.42,6.4-2.4,4.91,1.03-2.14,4.63-6.32,12.22-13.63,12.21-2.87,0-5.56-1.21-6.66-3.99-1.95,2.41-4.82,3.98-7.79,3.97-4.26,0-7.13-2.6-7.12-6.49,0-1.76.38-3.8,1.77-6.76l4.55-9.91c1.3-2.87,5.2-10.09,12.06-10.08,2.69,0,5,1.95,5.18,4.36l.56-1.11c1.58-3.24,6.58-2.12,4.81,1.67l-8.45,18.05c-.65,1.39-1.02,2.59-1.02,3.33ZM240.93,398.39l5.2-11.2c.56-1.2.93-2.41.93-3.43,0-1.57-.83-2.69-3.05-2.69-2.59,0-5.1,2.4-7.61,7.87l-4.46,9.54c-.65,1.39-1.02,2.59-1.02,3.7,0,1.48,1.02,2.5,2.59,2.51,2.69,0,5.66-2.59,7.42-6.29Z"/>
      <path class="cls-2" d="M271.32,396.3c1.58-3.42,6.4-2.4,4.91,1.03-2.14,4.63-6.32,12.22-13.63,12.21-5.46,0-8.43-2.23-8.42-7.05,0-1.48.56-3.61,1.77-6.21l5.48-11.94c.56-1.2.37-1.67,0-1.67h-.37c-1.67,0-2.13-1.02-1.57-2.5.47-1.3,1.3-2.32,2.88-2.31h.56c1.2,0,1.85-.65,2.32-1.66l3.44-7.41c1.67-3.43,6.3-2.4,4.45,1.95l-2.69,6.02c-.46.93-.09,1.11.83,1.11h1.02c1.85,0,2.59,1.12,1.85,2.88-.46,1.11-1.58,1.94-2.88,1.94h-1.67c-1.3,0-2.04.46-2.6,1.66l-6.04,13.05c-.65,1.48-1.12,2.96-1.12,4.17,0,1.85,1.01,3.06,3.15,3.06,3.8,0,6.4-4.25,8.35-8.33Z"/>
      <path class="cls-2" d="M285.77,396.32c1.58-3.42,6.39-2.4,4.91,1.03-2.14,4.63-6.31,12.22-13.63,12.21-3.89,0-7.69-2.23-7.68-6.77,0-2.41.93-4.35,1.95-6.48l7.62-16.57c1.49-3.15,6.39-2.49,4.44,1.95l-7.8,17.59c-.46.93-.74,2.04-.74,2.96,0,1.39.64,2.41,2.59,2.41,3.8,0,6.4-4.25,8.35-8.33ZM282.84,367.23c.37-2.13,2.32-3.79,4.27-3.79,2.32,0,3.98,1.95,3.51,4.17-.37,2.13-2.32,3.7-4.36,3.7-2.41,0-3.79-1.95-3.42-4.08Z"/>
      <path class="cls-2" d="M289.09,402.16c0,1.48.65,2.59,2.68,2.6,3.98,0,6.4-4.07,8.07-7.49l2.51-5.18c1.39-2.87,2.42-7.13,2.42-11.02,0-.65,0-1.3-.18-2.04-.74-2.87,3.9-3.61,4.63-.55.28,1.11.37,2.22.37,3.52,0,4.82-1.59,9.54-3.07,12.78l-2.41,5.09c-2.04,4.35-5.85,9.72-12.7,9.71-2.87,0-7.59-1.49-7.59-6.68,0-1.76.65-3.8,1.95-6.58l7.62-16.57c1.49-3.15,6.49-2.49,4.44,1.95l-7.9,17.31c-.46,1.02-.84,2.13-.84,3.15Z"/>
      <path class="cls-2" d="M315.22,399.97c0,2.41,2.96,4.82,6.85,4.83,6.39,0,10.29-4.62,12.05-8.42,1.49-3.33,6.39-2.31,4.91,1.03-3.72,8.15-9.74,12.21-17.15,12.21-6.3,0-11.85-3.07-11.85-9,0-1.85.65-4.54,2.05-7.32l3.72-7.78c1.49-2.96,4.37-9.17,11.22-9.16,5,0,7.04,3.07,7.03,6.68,0,1.57-.47,3.33-.93,4.54-2.32,6.02-6.22,8.61-10.57,8.6-1.95,0-3.98-1.12-4.91-1.95-.28-.19-.46.09-.56.37l-.93,2.04c-.65,1.39-.93,2.59-.93,3.33ZM322.36,391.27c2.13,0,3.99-1.57,5.47-4.44.46-.93.93-2.22.93-3.43,0-1.39-.65-2.41-2.5-2.41-2.41,0-4.08,2.31-5.47,5.27l-1.21,2.59c-.19.46-.37,1.11.18,1.48.83.56,1.67.93,2.59.93Z"/>
    </g>
  </g>
</svg>