<?xml version="1.0" encoding="UTF-8"?>
<svg id="Layer_1" data-name="Layer 1" xmlns="http://www.w3.org/2000/svg" viewBox="0 0 531.43 772.06">
  <defs>
    <style>
      .cls-1 {
        fill: none;
        stroke: #000;
        stroke-miterlimit: 10;
        stroke-width: 2px;
      }
    </style>
  </defs>
  <g id="Final_Logo" data-name="Final Logo">
    <rect class="cls-1" x="111.64" y="283.68" width="245.16" height="245.16"/>
    <g>
      <path d="M194.25,323.17h24.42v6.56h-8.4v49.12h-7.36v-49.12h-8.66v-6.56Z"/>
      <path d="M222.82,323.17h7.5v21.78h11v-21.78h7.5v55.69h-7.5v-27.56h-11v27.56h-7.5v-55.69Z"/>
      <path d="M254.45,323.17h19.95v6.35h-12.44v17.64h11.04v6.35h-11.04v19.01h12.44v6.35h-19.95v-55.69Z"/>
    </g>
    <g>
      <path d="M192.95,440.3h9.23c2.81,0,5.18.31,7.11.94,1.78.6,3.37,1.67,4.76,3.21,2.09,2.31,3.58,5.31,4.47,9.02.89,3.58,1.34,8.72,1.34,15.4,0,6.13-.49,11.13-1.48,15-.96,3.7-2.55,6.53-4.76,8.48-2.72,2.43-7.59,3.64-14.61,3.64h-6.06v-55.69ZM200.46,489.42c4.57,0,7.62-1.38,9.16-4.15,1.59-2.76,2.38-8.14,2.38-16.12,0-8.58-.76-14.49-2.27-17.71-1.52-3.22-4.29-4.83-8.33-4.83h-.94v42.81Z"/>
      <path d="M224.37,440.3h19.95v6.35h-12.44v17.64h11.04v6.35h-11.04v19.01h12.44v6.35h-19.95v-55.69Z"/>
      <path d="M246.77,440.3h7.39l3.35,20.56.58,3.71,1.19,8.08c.19,1.37.37,2.62.52,3.75.16,1.13.29,2.15.41,3.07l.36,2.74c.07-.55.13-1.05.18-1.48.05-.43.1-.79.14-1.08l.97-6.46,1.26-8.48c.12-.77.23-1.48.34-2.13.11-.65.21-1.23.31-1.73l3.61-20.56h7l-10.93,55.69h-5.95l-10.75-55.69Z"/>
    </g>
    <g>
      <path d="M122.31,405.03c.03-21.55,18.77-41.12,39.44-41.1,13.07.02,22.51,7.73,22.5,18.26-.01,9.16-7.33,16.66-16.3,16.65-6.83,0-11.79-4.6-11.78-11.03,0-1.85.49-4.68,2.25-6.43,2.34-2.34,6.05,0,4.09,2.54-.78,1.07-1.08,2.05-1.08,3.41,0,3.41,2.72,5.95,6.62,5.96,5.85,0,10.54-5.06,10.54-11.1,0-7.31-7-12.78-16.75-12.79-17.65-.02-33.86,16.92-33.88,35.35-.02,13.16,8.65,22.24,20.54,22.26,5.17,0,10.34-1.74,13.56-4.47,3.61-3.12,6.34,1.86,2.53,4.98-3.71,3.02-10.15,4.96-16.39,4.95-15.02-.02-25.92-11.34-25.9-27.43Z"/>
      <path d="M204.11,412.55c1.66-3.6,6.73-2.53,5.17,1.08-2.25,4.87-6.65,12.86-14.35,12.85-4.1,0-7.5-2.35-7.5-6.93,0-1.85.59-4.19,1.47-6.04l5.38-11.6c.49-1.17.98-2.44.98-3.22,0-2.63-3.31-3.03-4.58-4.59l-9.88,21.34c-1.37,2.92-2.64,5.94-2.64,9.75,0,3.12,1.45,6.34,5.35,7.22,3.7.88,2.43,6.24-1.47,5.36-6.24-1.37-9.25-6.84-9.25-12.39,0-4.68,2.16-9.55,3.13-11.6l14.08-30.21c1.56-3.31,7.12-2.53,4.68,2.05-4.4,8.28,6.14,4,6.13,12.39,0,1.46-.98,4.39-1.57,5.65l-5.57,11.99c-.49.97-.88,2.24-.88,3.31,0,1.37.68,2.34,2.53,2.34,4.09,0,6.73-4.48,8.79-8.76Z"/>
      <path d="M208.78,416.36c0,2.54,3.11,5.07,7.21,5.08,6.73,0,10.83-4.86,12.69-8.86,1.57-3.51,6.73-2.43,5.17,1.08-3.91,8.58-10.25,12.86-18.05,12.85-6.63,0-12.48-3.23-12.47-9.47,0-1.95.69-4.78,2.15-7.7l3.91-8.19c1.56-3.12,4.6-9.65,11.81-9.64,5.27,0,7.41,3.23,7.4,7.03,0,1.66-.49,3.51-.98,4.78-2.45,6.33-6.54,9.06-11.13,9.05-2.05,0-4.19-1.18-5.17-2.05-.29-.2-.49.1-.58.39l-.98,2.14c-.68,1.46-.98,2.73-.98,3.51ZM216.3,407.2c2.24,0,4.2-1.65,5.76-4.67.49-.97.98-2.34.98-3.61,0-1.46-.68-2.54-2.63-2.54-2.54,0-4.29,2.43-5.76,5.55l-1.27,2.73c-.2.49-.39,1.17.19,1.56.88.59,1.75.98,2.73.98Z"/>
      <path d="M247.29,419.23c0,1.56,1.07,2.15,2.63,2.15,4,0,6.73-4.48,8.79-8.76,1.66-3.61,6.73-2.53,5.17,1.08-2.25,4.87-6.65,12.86-14.35,12.85-3.02,0-5.85-1.28-7.01-4.2-2.05,2.53-5.08,4.19-8.2,4.18-4.49,0-7.5-2.74-7.5-6.83,0-1.85.39-4,1.86-7.12l4.79-10.43c1.37-3.02,5.47-10.62,12.69-10.61,2.83,0,5.26,2.05,5.45,4.59l.59-1.17c1.66-3.41,6.92-2.23,5.07,1.76l-8.9,19c-.68,1.46-1.08,2.73-1.08,3.51ZM242.91,414.84l5.48-11.79c.59-1.27.98-2.53.98-3.61,0-1.66-.87-2.83-3.21-2.83-2.73,0-5.37,2.53-8.01,8.28l-4.69,10.04c-.68,1.46-1.08,2.73-1.08,3.9,0,1.56,1.07,2.63,2.73,2.64,2.83,0,5.95-2.72,7.81-6.62Z"/>
      <path d="M274.89,412.64c1.66-3.61,6.73-2.53,5.17,1.08-2.25,4.87-6.65,12.86-14.35,12.85-5.75,0-8.87-2.35-8.86-7.42,0-1.56.59-3.8,1.86-6.53l5.77-12.57c.59-1.27.39-1.75,0-1.76h-.39c-1.75,0-2.24-1.08-1.65-2.63.49-1.37,1.37-2.44,3.03-2.43h.58c1.27,0,1.95-.68,2.44-1.75l3.62-7.8c1.76-3.6,6.63-2.53,4.68,2.05l-2.84,6.33c-.49.97-.1,1.17.88,1.17h1.07c1.95,0,2.73,1.17,1.95,3.03-.49,1.17-1.66,2.04-3.03,2.04h-1.75c-1.37,0-2.15.48-2.73,1.75l-6.36,13.74c-.68,1.56-1.17,3.12-1.18,4.39,0,1.95,1.07,3.22,3.31,3.22,4,0,6.73-4.48,8.79-8.76Z"/>
      <path d="M290.1,412.66c1.66-3.61,6.73-2.53,5.17,1.08-2.25,4.87-6.65,12.86-14.35,12.85-4.1,0-8.09-2.35-8.08-7.13,0-2.54.98-4.58,2.06-6.82l8.02-17.44c1.56-3.31,6.73-2.62,4.68,2.05l-8.21,18.51c-.49.97-.78,2.14-.78,3.12,0,1.46.68,2.54,2.73,2.54,4,0,6.73-4.48,8.79-8.76ZM287.02,382.04c.39-2.24,2.44-4,4.49-3.99,2.44,0,4.19,2.05,3.7,4.39-.39,2.24-2.44,3.9-4.59,3.89-2.53,0-3.99-2.05-3.6-4.29Z"/>
      <path d="M293.6,418.81c0,1.56.68,2.73,2.82,2.73,4.19,0,6.73-4.28,8.49-7.89l2.64-5.46c1.47-3.02,2.54-7.5,2.55-11.6,0-.68,0-1.37-.19-2.14-.78-3.02,4.1-3.8,4.88-.58.29,1.17.39,2.34.38,3.71,0,5.07-1.67,10.04-3.23,13.45l-2.54,5.36c-2.15,4.58-6.16,10.23-13.37,10.22-3.02,0-7.99-1.57-7.99-7.03,0-1.85.69-4,2.06-6.92l8.02-17.44c1.56-3.31,6.83-2.62,4.68,2.05l-8.31,18.22c-.49,1.07-.88,2.24-.88,3.31Z"/>
      <path d="M321.1,416.5c0,2.54,3.11,5.07,7.21,5.08,6.73,0,10.83-4.86,12.69-8.86,1.57-3.51,6.73-2.43,5.17,1.08-3.91,8.57-10.25,12.86-18.05,12.85-6.63,0-12.48-3.23-12.47-9.47,0-1.95.69-4.78,2.15-7.7l3.91-8.19c1.56-3.12,4.6-9.65,11.81-9.64,5.27,0,7.41,3.23,7.4,7.03,0,1.66-.49,3.51-.98,4.78-2.45,6.33-6.54,9.06-11.13,9.05-2.05,0-4.19-1.18-5.17-2.05-.29-.2-.49.1-.58.39l-.98,2.14c-.68,1.46-.98,2.73-.98,3.51ZM328.62,407.35c2.24,0,4.2-1.65,5.76-4.67.49-.97.98-2.34.98-3.61,0-1.46-.68-2.54-2.63-2.54-2.54,0-4.29,2.43-5.76,5.55l-1.27,2.73c-.2.49-.39,1.17.19,1.56.88.59,1.75.98,2.73.98Z"/>
    </g>
  </g>
</svg>