<?xml version="1.0" encoding="UTF-8"?>
<svg id="Layer_1" data-name="Layer 1" xmlns="http://www.w3.org/2000/svg" viewBox="0 0 450.69 450.68">
  <defs>
    <style>
      .cls-1 {
        fill: none;
        stroke: #483328;
        stroke-miterlimit: 10;
        stroke-width: 2px;
      }

      .cls-2 {
        fill: #483328;
      }
    </style>
  </defs>
  <g id="Final_Logo" data-name="Final Logo">
    <rect class="cls-1" x="1" y="1" width="448.69" height="448.68"/>
    <g>
      <path class="cls-2" d="M152.21,73.27h44.69v12.02h-15.37v89.9h-13.46v-89.9h-15.83v-12.02h-.02Z"/>
      <path class="cls-2" d="M204.49,73.27h13.73v39.87h20.13v-39.87h13.73v101.92h-13.73v-50.43h-20.13v50.43h-13.73v-101.92Z"/>
      <path class="cls-2" d="M262.37,73.27h36.5v11.62h-22.77v32.28h20.21v11.62h-20.21v34.79h22.77v11.62h-36.5v-101.92Z"/>
    </g>
    <g>
      <path class="cls-2" d="M149.82,287.63h16.89c5.14,0,9.48.58,13,1.71,3.26,1.1,6.16,3.06,8.71,5.88,3.83,4.22,6.55,9.73,8.19,16.51,1.62,6.55,2.45,15.95,2.45,28.18,0,11.23-.91,20.38-2.72,27.45-1.75,6.78-4.66,11.94-8.71,15.51-4.97,4.45-13.89,6.66-26.74,6.66h-11.1v-101.92l.02.02ZM163.56,377.55c8.36,0,13.95-2.52,16.76-7.59,2.91-5.07,4.35-14.89,4.35-29.51,0-15.72-1.39-26.51-4.16-32.42-2.77-5.91-7.86-8.84-15.26-8.84h-1.71v78.36h.02Z"/>
      <path class="cls-2" d="M207.34,287.63h36.5v11.62h-22.77v32.28h20.21v11.62h-20.21v34.79h22.77v11.62h-36.5v-101.92h0Z"/>
      <path class="cls-2" d="M248.33,287.63h13.52l6.14,37.62,1.06,6.8,2.18,14.79c.35,2.5.67,4.8.96,6.86s.54,3.93.75,5.61l.65,5.01c.13-1.02.25-1.91.33-2.7.1-.79.17-1.44.27-1.98l1.79-11.81,2.31-15.51c.21-1.41.42-2.72.64-3.89.19-1.19.39-2.25.56-3.18l6.61-37.62h12.81l-19.99,101.92h-10.88l-19.67-101.92h-.04Z"/>
    </g>
    <g>
      <path class="cls-2" d="M20.53,223.1c.06-39.43,34.36-75.26,72.2-75.2,23.9.04,41.2,14.16,41.18,33.42-.02,16.78-13.43,30.49-29.84,30.47-12.48,0-21.57-8.42-21.57-20.19,0-3.39.91-8.57,4.12-11.77,4.3-4.28,11.06,0,7.49,4.64-1.43,1.96-1.96,3.74-1.96,6.24,0,6.24,4.99,10.88,12.12,10.9,10.71,0,19.28-9.25,19.3-20.32,0-13.39-12.81-23.38-30.67-23.42-32.3-.04-61.97,30.97-62.01,64.7-.04,24.1,15.83,40.7,37.6,40.74,9.46,0,18.92-3.18,24.81-8.17,6.61-5.7,11.6,3.41,4.62,9.11-6.78,5.53-18.57,9.07-29.99,9.05-27.49-.04-47.44-20.77-47.41-50.2v-.02Z"/>
      <path class="cls-2" d="M170.24,236.85c3.04-6.59,12.31-4.62,9.46,1.98-4.12,8.92-12.15,23.54-26.26,23.52-7.49,0-13.73-4.3-13.71-12.69,0-3.39,1.08-7.67,2.7-11.06l9.84-21.23c.89-2.14,1.79-4.47,1.79-5.89,0-4.82-6.07-5.55-8.38-8.4l-18.07,39.06c-2.5,5.36-4.83,10.88-4.83,17.84,0,5.7,2.66,11.6,9.8,13.21,6.78,1.62,4.45,11.42-2.7,9.8-11.42-2.5-16.93-12.52-16.93-22.69,0-8.57,3.95-17.49,5.74-21.23l25.77-55.28c2.87-6.07,13.04-4.62,8.55,3.76-8.05,15.16,11.23,7.34,11.21,22.67,0,2.68-1.79,8.03-2.87,10.34l-10.19,21.94c-.89,1.79-1.62,4.1-1.62,6.07,0,2.5,1.25,4.28,4.64,4.3,7.49,0,12.33-8.19,16.08-16.05l-.04.02Z"/>
      <path class="cls-2" d="M178.79,243.83c0,4.64,5.7,9.28,13.19,9.3,12.31,0,19.82-8.9,23.21-16.22,2.87-6.41,12.31-4.45,9.46,1.98-7.17,15.7-18.76,23.52-33.04,23.52-12.14,0-22.83-5.91-22.83-17.34,0-3.56,1.25-8.75,3.95-14.1l7.17-14.99c2.87-5.7,8.42-17.66,21.61-17.64,9.63,0,13.56,5.91,13.54,12.87,0,3.02-.91,6.41-1.79,8.75-4.47,11.6-11.98,16.59-20.36,16.57-3.76,0-7.67-2.16-9.46-3.76-.54-.37-.89.17-1.08.71l-1.79,3.93c-1.25,2.68-1.79,4.99-1.79,6.41h0ZM192.57,227.07c4.1,0,7.69-3.02,10.54-8.55.89-1.79,1.79-4.28,1.79-6.61,0-2.68-1.25-4.64-4.82-4.64-4.64,0-7.86,4.45-10.54,10.15l-2.33,4.99c-.37.89-.71,2.14.35,2.85,1.6,1.08,3.22,1.79,4.99,1.79l.02.02Z"/>
      <path class="cls-2" d="M249.28,249.08c0,2.85,1.96,3.93,4.82,3.93,7.32,0,12.33-8.19,16.08-16.05,3.04-6.59,12.33-4.62,9.46,1.98-4.12,8.92-12.17,23.54-26.26,23.52-5.53,0-10.71-2.33-12.83-7.69-3.76,4.64-9.28,7.67-15.01,7.65-8.21,0-13.73-5.01-13.71-12.5,0-3.39.73-7.32,3.41-13.02l8.76-19.09c2.5-5.53,10.02-19.44,23.23-19.42,5.18,0,9.63,3.76,9.98,8.4l1.08-2.14c3.04-6.24,12.67-4.08,9.27,3.22l-16.28,34.77c-1.25,2.68-1.96,4.99-1.96,6.41l-.04.02ZM241.26,241.03l10.02-21.57c1.08-2.31,1.79-4.64,1.79-6.61,0-3.02-1.6-5.18-5.88-5.18-4.99,0-9.82,4.62-14.66,15.16l-8.59,18.38c-1.25,2.68-1.96,4.99-1.96,7.13,0,2.85,1.96,4.82,4.99,4.83,5.18,0,10.9-4.99,14.29-12.12v-.02Z"/>
      <path class="cls-2" d="M299.8,237.01c3.04-6.59,12.33-4.62,9.46,1.98-4.12,8.92-12.17,23.54-26.26,23.52-10.52,0-16.24-4.3-16.22-13.58,0-2.85,1.08-6.95,3.41-11.96l10.56-23c1.08-2.31.71-3.22,0-3.22h-.71c-3.22,0-4.1-1.96-3.02-4.82.91-2.5,2.5-4.47,5.55-4.45h1.08c2.31,0,3.56-1.25,4.47-3.2l6.63-14.27c3.22-6.61,12.14-4.62,8.57,3.76l-5.18,11.6c-.89,1.79-.17,2.14,1.6,2.14h1.96c3.56,0,4.99,2.16,3.56,5.55-.89,2.14-3.04,3.74-5.55,3.74h-3.22c-2.5,0-3.93.89-5.01,3.2l-11.63,25.14c-1.25,2.85-2.16,5.7-2.16,8.03,0,3.56,1.95,5.89,6.07,5.89,7.32,0,12.33-8.19,16.08-16.05h-.04Z"/>
      <path class="cls-2" d="M327.64,237.04c3.04-6.59,12.31-4.62,9.46,1.98-4.12,8.92-12.15,23.54-26.26,23.52-7.49,0-14.81-4.3-14.79-13.04,0-4.64,1.79-8.38,3.76-12.48l14.68-31.92c2.87-6.07,12.31-4.8,8.55,3.76l-15.02,33.88c-.89,1.79-1.43,3.93-1.43,5.7,0,2.68,1.23,4.64,4.99,4.64,7.32,0,12.33-8.19,16.08-16.05h-.02ZM321.99,181.01c.71-4.1,4.47-7.3,8.23-7.3,4.47,0,7.67,3.76,6.76,8.03-.71,4.1-4.47,7.13-8.4,7.13-4.64,0-7.3-3.76-6.59-7.86h0Z"/>
      <path class="cls-2" d="M334.03,248.29c0,2.85,1.25,4.99,5.16,5.01,7.67,0,12.33-7.84,15.54-14.43l4.83-9.98c2.68-5.53,4.66-13.73,4.66-21.23,0-1.25,0-2.5-.35-3.93-1.43-5.53,7.51-6.95,8.92-1.06.54,2.14.71,4.28.71,6.78,0,9.28-3.06,18.38-5.91,24.62l-4.64,9.8c-3.93,8.38-11.27,18.72-24.46,18.7-5.53,0-14.62-2.87-14.62-12.87,0-3.39,1.25-7.32,3.76-12.67l14.68-31.92c2.87-6.07,12.5-4.8,8.55,3.76l-15.22,33.34c-.89,1.96-1.62,4.1-1.62,6.07h0Z"/>
      <path class="cls-2" d="M384.37,244.08c0,4.64,5.7,9.28,13.19,9.3,12.31,0,19.82-8.9,23.21-16.22,2.87-6.41,12.31-4.45,9.46,1.98-7.17,15.7-18.76,23.52-33.04,23.52-12.14,0-22.83-5.91-22.83-17.34,0-3.56,1.25-8.75,3.95-14.1l7.17-14.99c2.87-5.7,8.42-17.66,21.61-17.64,9.63,0,13.56,5.91,13.54,12.87,0,3.02-.91,6.41-1.79,8.75-4.47,11.6-11.98,16.59-20.36,16.57-3.76,0-7.67-2.16-9.46-3.76-.54-.37-.89.17-1.08.71l-1.79,3.93c-1.25,2.68-1.79,4.99-1.79,6.41h0ZM398.12,227.32c4.1,0,7.69-3.02,10.54-8.55.89-1.79,1.79-4.28,1.79-6.61,0-2.68-1.25-4.64-4.82-4.64-4.64,0-7.86,4.45-10.54,10.15l-2.33,4.99c-.37.89-.71,2.14.35,2.85,1.6,1.08,3.22,1.79,4.99,1.79l.02.02Z"/>
    </g>
  </g>
</svg>